<svg xmlns="http://www.w3.org/2000/svg" version="1.1" width="110.0" height="135.0" style=""><rect id="backgroundrect" width="100%" height="100%" x="0" y="0" fill="none" stroke="none"/>
 
<g class="currentLayer" style=""><title>Layer 1</title><path d="m54.422 72.703c-2.3516-0.44922-4.0352-2.1875-5.2656-5.3984 1.2539-0.52734 2.5391-1.1406 3.8516-1.8398 0.85547 0.14844 1.7109 0.21875 2.5703 0.24609 0.58203 4.9414 3.6445 8.0625 7.4961 9.6133l2.2148 9.6094-3.7852 0.93359c-1.7969-5.082-3.9141-9.2656-6.457-12.77-0.15234-0.20703-0.375-0.34766-0.625-0.39453zm-2.0547-9.168c-9.0898 4.918-16.68 5.5859-20.824 1.8359-2.8555-2.5859-3.5781-6.9453-1.8359-11.109 1.6133-3.8555 4.8242-6.582 9.0625-7.9062 0.03125-0.007813 0.0625-0.019531 0.09375-0.027344 2.2812-0.69922 4.8516-1 7.6367-0.83984 0.26562 0.015625 0.51562-0.070312 0.71094-0.24219 5.8477-5.0469 11.027-6.2812 15.832-3.7773 0.49219 0.25781 1.0938 0.066406 1.3477-0.42578 0.25391-0.48828 0.066406-1.0938-0.42578-1.3477-0.32812-0.17187-0.65625-0.32422-0.98438-0.46484 1.6875-0.95703 2.7734-2.5391 3.2227-4.7383 0.10938-0.53906-0.23828-1.0703-0.77734-1.1797-0.54297-0.11328-1.0703 0.23828-1.1797 0.77734-0.42578 2.0781-1.4922 3.3125-3.3516 3.8789-0.25391 0.078125-0.44922 0.25-0.57422 0.46094-4.4336-0.82031-9.1641 0.85547-14.113 5.0352-2.6602-0.11328-5.0273 0.16797-7.1211 0.72656-0.72266-1.6914-1.0781-3.9844-1.0742-6.9805 0-0.55078-0.44531-1-1-1-0.55078 0-1 0.44531-1 1-0.003907 3.2227 0.375 5.6719 1.1719 7.6016-1.2812 0.48828-2.4453 1.0859-3.4805 1.7695-1.1406-2.3984-3.4453-3.6328-6.8906-3.6445h-0.003906c-0.55078 0-1 0.44531-1 0.99609 0 0.55078 0.44531 1 0.99609 1.0039 3.6719 0.015625 4.7852 1.5898 5.2656 2.8672-1.9844 1.6914-3.3828 3.6953-4.2109 5.6797-0.44141 1.0547-0.73828 2.125-0.91406 3.1875-7.1641 0.76172-12.012-0.097656-14.406-2.5625-1.6133-1.6602-2.1602-4.0625-1.6719-7.3438 0.054687-0.37109-0.10156-0.74219-0.40625-0.96094-1.8438-1.3164-2.0664-3.2734-1.9297-4.6797 0.33984-3.4844 3.1016-7.3477 6.2891-8.7969 1.207-0.55078 2.9727-0.9375 4.707 0.10156-0.10547 0.60937-0.18359 1.2461-0.21875 1.9219-0.03125 0.55078 0.39453 1.0234 0.94531 1.0547h0.054688c0.52734 0 0.96875-0.41406 0.99609-0.94531 0.27344-5.0703 2.5469-7.5625 7.1562-7.8438 0.30078-0.019532 0.57812-0.17188 0.75391-0.41797 2.7148-3.8047 5.8125-5.2695 9.457-4.4766 1.5664 0.33984 3.0742 0.15625 4.3633-0.53516l1.6758-0.89844c0.48828-0.26172 0.67187-0.86719 0.41016-1.3516-0.26172-0.48438-0.86719-0.67188-1.3516-0.41016l-1.6719 0.89453c-1.0938 0.58594-2.2305 0.50781-2.9961 0.34375-4.3242-0.94141-8.1016 0.70703-11.234 4.8867-3.9609 0.375-6.6094 2.3438-7.8242 5.7734-1.8359-0.89062-3.9375-0.87891-6.0469 0.078125-0.32812 0.14844-0.64844 0.32422-0.96484 0.51172 0.4375-2.3711 2.0625-3.7109 5.125-4.2148 0.33984-0.054687 0.625-0.28516 0.75781-0.60156 2.25-5.3906 6.3047-7.7383 12.375-7.1836 0.27734 0.023437 0.55469-0.066406 0.76563-0.25781 4.3008-3.9141 8.6953-4.9648 13.43-3.2266 0.22656 0.082031 0.47656 0.082031 0.70312-0.003906 5.2461-2.0078 9.2461-2.0977 11.922-0.27734-3.4922 1.5039-5.5781 4.6641-5.7227 8.7695-4.5898 2.5508-6.2773 6.418-5.1484 11.797 0.097657 0.47266 0.51562 0.79688 0.97656 0.79688 0.066406 0 0.13672-0.007812 0.20703-0.019531 0.53906-0.11328 0.88672-0.64453 0.77344-1.1836-0.98437-4.707 0.44531-7.7578 4.6406-9.8945 0.33984-0.17188 0.55078-0.52344 0.54687-0.90234-0.042968-4.0781 2.0703-6.9844 5.8047-7.9688 4.9141-1.2969 11.938 1.1406 16.617 8.1055-2.418-0.13672-4.7227 0.64062-6.25 2.8008-0.89063-0.76953-2.0039-1.4375-3.3516-2-0.51172-0.21094-1.0938 0.03125-1.3086 0.53906-0.21094 0.51172 0.027344 1.0938 0.53906 1.3086 2.9883 1.2461 4.5195 2.957 4.6836 5.2383 0.039062 0.52734 0.47656 0.92969 0.99609 0.92969 0.023438 0 0.046875 0 0.070313-0.003906 0.55078-0.039062 0.96484-0.51562 0.92578-1.0703-0.089844-1.2656-0.49609-2.3945-1.1875-3.4062 1.918-3.2539 6.2305-2.7227 9.4297-0.84766 1.7734 1.0391 3.2148 2.5 3.9492 4.0078 0.79688 1.6289 0.76562 3.1914-0.085937 4.6445-0.19531 0.33594-0.17969 0.75391 0.039062 1.0742 0.21875 0.32031 0.60547 0.48438 0.98828 0.41797 1.5703-0.26562 3.6992 0.75391 4.7383 3.2109 1.082 2.5547 0.29688 5.4922-0.73828 6.1484-0.35156 0.22266-0.53125 0.64062-0.44531 1.0469 1.0898 5.2383 0.5625 8.8281-1.6133 10.98-3.1484 3.1133-9.9336 3.3906-21.355 0.87891-0.24219-0.054688-0.49609-0.015626-0.71094 0.10937-4.5859 2.6211-8.8672 3.4922-13.082 2.668-0.22656-0.035156-0.46094 0-0.66797 0.10938zm-31.227-13.391c-3.6953-1.793-5.2344-4.125-4.7148-7.1211 0.09375-0.54297-0.26953-1.0625-0.8125-1.1562-0.54688-0.089844-1.0625 0.26953-1.1562 0.8125-0.6875 3.9414 1.2695 7.0586 5.8125 9.2617 0.14062 0.070313 0.28906 0.10156 0.4375 0.10156 0.37109 0 0.72656-0.20703 0.89844-0.5625 0.23828-0.49609 0.03125-1.0977-0.46484-1.3359zm25.094-25.891c-0.20703-0.51172-0.78516-0.76172-1.3008-0.55469-3.6562 1.4727-4.8516 4.4688-5.332 6.9688-1.3945-0.34375-2.9766-0.3125-4.4531 0.007812-0.30078 0.066407-0.58984 0.15625-0.87891 0.24609-0.56641-1.1523-0.89453-2.2461-0.97266-3.3125-0.039063-0.55078-0.52344-0.96484-1.0703-0.92188-0.55078 0.039062-0.96484 0.51953-0.92187 1.0703 0.09375 1.2852 0.46875 2.5781 1.1094 3.918-0.66406 0.35156-1.2656 0.75781-1.7617 1.2227-1 0.94141-1.5586 2.0625-1.6367 3.2461-2.8047-0.027343-4.9453 0.58984-6.3477 1.8789-1.2812 1.1797-1.9453 2.8828-1.9727 5.0625-0.007812 0.55078 0.4375 1.0039 0.98828 1.0117h0.011718c0.54688 0 0.99219-0.44141 1-0.98828 0.019532-1.6289 0.45313-2.8125 1.3242-3.6172 1.1641-1.0703 3.1758-1.5078 5.9922-1.3047 0.3125 0.015625 0.62109-0.10547 0.82812-0.34375 0.20703-0.23828 0.28906-0.55859 0.22266-0.86719-0.45703-2.1133 1.9219-3.7891 4.5078-4.3477 1.4219-0.30859 2.8594-0.27344 3.9414 0.097656 1.0938 0.375 1.7539 1.0469 1.9609 1.9922 0.11719 0.53906 0.65234 0.88281 1.1875 0.76562 0.53906-0.11719 0.88281-0.64844 0.76562-1.1875-0.27734-1.2773-0.98047-2.1953-1.9258-2.8203 0.51953-3.1602 1.7852-4.957 4.1797-5.9219 0.51172-0.20313 0.75781-0.78906 0.55469-1.3008zm18.707-2.2266c-0.23047-0.5-0.82422-0.72266-1.3242-0.49219-7.2344 3.3164-7.2305 8.3047-5.9531 11.902 0.14453 0.41016 0.53125 0.66406 0.94141 0.66406 0.10938 0 0.22266-0.019531 0.33594-0.058593 0.51953-0.18359 0.79297-0.75781 0.60938-1.2773-1.4922-4.207 0.066407-7.1953 4.9023-9.4141 0.5-0.23047 0.71875-0.82031 0.48828-1.3242zm10.594 28.402c0.16016 0.38672 0.53125 0.62109 0.92578 0.62109 0.125 0 0.25391-0.023437 0.37891-0.074219 1.8867-0.77344 3.3398-1.7656 4.3555-2.9648 1.0938 0.625 1.8125 1.375 2.1406 2.3047 0.48047 1.3711 0.16797 3.1914-0.93359 5.4141-0.24609 0.49609-0.042969 1.0938 0.45312 1.3398 0.14453 0.070313 0.29297 0.10547 0.44531 0.10547 0.36719 0 0.72266-0.20312 0.89844-0.55469 1.3516-2.7227 1.6953-5.0664 1.0273-6.9648-0.48047-1.3633-1.4727-2.4844-2.9531-3.3477 0.066406-0.14453 0.13672-0.28516 0.19531-0.4375 0.90625-2.4453 0.45703-5.4688-1.3398-8.9844-0.25-0.49219-0.85156-0.6875-1.3438-0.4375-0.49219 0.25-0.6875 0.85156-0.4375 1.3438 1.5312 3 1.9492 5.4805 1.2461 7.3828-0.61328 1.6484-2.1289 2.9766-4.5078 3.9492-0.51563 0.20703-0.75781 0.79297-0.55078 1.3047zm-31.23 3.1953c0.21484 0.082031 0.44141 0.15625 0.67969 0.21484 0.69531 0.17969 1.457 0.26562 2.2461 0.26562 3.0781 0 6.6172-1.2812 8.5742-3.2812 0.29687-0.30078 0.54297-0.61719 0.75391-0.94141 1.5664 0.32422 3.0547 0.49219 4.4492 0.49219 7.2734 0 12.211-4.375 14.707-13.055 0.15234-0.53125-0.15234-1.0859-0.68359-1.2383-0.53125-0.15625-1.0859 0.15625-1.2383 0.68359-2.6367 9.168-8.043 12.828-16.5 11.215 0.074219-0.54297 0.042969-1.0977-0.10938-1.6406-0.14844-0.53125-0.69922-0.84375-1.2305-0.69531-0.53125 0.14844-0.84375 0.69922-0.69531 1.2305 0.23828 0.85156-0.058593 1.707-0.87891 2.5469-1.9531 1.9922-6.1914 3.1758-8.8945 2.4805-1.1367-0.29297-1.832-0.87109-2.0703-1.7227-0.14844-0.53125-0.69922-0.83984-1.2305-0.69531-0.53125 0.14844-0.84375 0.69922-0.69531 1.2305 0.15234 0.54688 0.41016 1.0352 0.75781 1.4648-3.1914 1.2188-5.4258 3.5625-6.9414 7.2891-0.20703 0.51172 0.039062 1.0938 0.55078 1.3047 0.125 0.050781 0.25 0.074218 0.375 0.074218 0.39453 0 0.76953-0.23438 0.92578-0.625 1.5117-3.7188 3.7227-5.7539 7.1484-6.5977zm5.0781 5.6328c4.2734 1.5078 8.1562 0.49219 11.562-3.0156 4.3359 1.4453 8.4023 1.3633 12.094-0.24219 0.50781-0.21875 0.73828-0.80859 0.51953-1.3164-0.21875-0.50781-0.8125-0.74219-1.3164-0.51953-3.4297 1.4922-7.1055 1.4844-11.242-0.023437-0.38281-0.14062-0.8125-0.03125-1.0859 0.26953-3.1328 3.4805-6.5859 4.3633-10.555 2.6914-0.47656-0.20312-1.0273-0.003906-1.2695 0.44922-0.74219 1.3828-1.9297 2.1328-3.7461 2.3594-0.54688 0.070313-0.9375 0.57031-0.86719 1.1172 0.0625 0.50781 0.49219 0.875 0.99219 0.875 0.042969 0 0.085938-0.003906 0.125-0.007813 2.1094-0.26172 3.7148-1.1484 4.7891-2.6367zm17.391 3.4336c-3.1523 1.75-6.1914 2.7266-9.1875 2.9688 0.89453 6.5078 7.1406 9.1602 12.801 8.8359 5.6797-0.32422 11.586-3.6836 11.711-10.273-3.8359 0.37891-8.8516-0.12891-15.324-1.5312z" id="svg_1" class="selected" fill="#ffffff" fill-opacity="1"/></g></svg>