<svg xmlns="http://www.w3.org/2000/svg" version="1.1" viewBox="-5.0 -10.0 110.0 135.0">
 <path fill="white" d="m38.91 38.109c-0.72266-6.8906 0.6875-11.496 4.4453-14.461 0.80078-0.63281 1.0625-1.7383 0.64453-2.6914l-2.0039-4.5391c0.625-0.65625 1.2773-1.0234 1.9766-1.1211 1.1914 3.0469 2.9258 6.2461 4.8203 5.7461 1.4805-0.39844 2.1875-3.0352 2.0977-7.8477 1.0547-0.26562 1.875-0.24219 2.4883 0.078126-0.80859 5.6328 0.28125 6.2148 0.69922 6.4375 0.32031 0.17187 0.69531 0.19922 1.0586 0.078124 1.1367-0.375 2.5039-2.707 3.5273-4.7969 0.61719 0.027343 0.9375 0.25391 1.1484 0.59766l-1.0352 3.875c-0.23828 0.89453-0.007813 1.8516 0.62109 2.5625 1.3945 1.582 2.3633 3.1797 2.9922 4.8594-2.0156 0.51172-4.0977 1.2305-6.2383 2.1523-2.9805-1.0703-5.1797-1.0391-6.7109 0.085938-1.5703 1.1562-2.2344 3.3125-2.0312 6.5977 0.035156 0.55469-0.11719 1.0898-0.42188 1.5039-1.0664 1.4531-1.9648 3.0742-2.7734 4.9883-1.5234-2.0078-3.3398-3.3984-5.3047-4.1055zm-7.6211 18.141c0.03125-0.042969 0.074219-0.074219 0.11328-0.11328 1.5-1.543 3.4414-3.0703 5.957-4.4219 4.6055-2.7656 5.7734-6.0195 6.0508-7.1602-3.4844-5.6367-8.2305-5.75-11.555-3.9297-4.9492 2.707-9.3086 11.297-4.8438 22.539 0.63672-1.8867 1.8789-4.4141 4.2773-6.9141zm27.57-15.078c-1.2305 1.5469-1.8086 3.1406-1.6328 4.4844 0.69922 3.0664 2.8516 3.3359 6.5938 3.5391 1.7148 0.09375 3.6172 0.19531 5.375 0.81641 1.0078-4.8867-1.207-8.5742-7.0625-11.801-1.3984 0.95703-2.5 1.9844-3.2734 2.9609zm-3.0312-10.125c-1.6914-0.64453-3.9648-1.2227-5.1992-0.31641-0.96484 0.71094-1.375 2.3477-1.2227 4.8594 0.0625 1.0195-0.22266 2.0195-0.80469 2.8125-1.2344 1.6836-2.2383 3.6211-3.1445 6.0898-0.12891 0.8125-1.0156 4.8516-6.125 8.3242l0.27344 3.1953c0.050781 0.58594 0.39062 1.0977 0.91406 1.3672l3.0234 1.5625c1.082 0.55859 1.8203 1.6133 1.9766 2.8203l0.30859 2.4219c0.070313 0.54688-0.31641 1.0469-0.86328 1.1172-0.042969 0.007813-0.085938 0.007813-0.12891 0.007813-0.49609 0-0.92578-0.36719-0.99219-0.875l-0.30859-2.4219c-0.070312-0.55469-0.41016-1.0391-0.90625-1.2969l-3.0273-1.5625c-1.1367-0.58594-1.8828-1.6992-1.9922-2.9766l-0.1875-2.1914c-1.8047 1.0703-3.2656 2.2305-4.4297 3.4023-0.53516 2.5508-0.57813 8.0195 2.6133 9.8867l3.3516 1.8828c0.94922 0.53125 1.6836 1.3867 2.0703 2.4062l1.1328 2.9922c0.19531 0.51562-0.0625 1.0938-0.58203 1.2891-0.11719 0.042969-0.23438 0.066406-0.35547 0.066406-0.40234 0-0.78516-0.24609-0.93359-0.64453l-1.1328-2.9922c-0.21875-0.57813-0.63672-1.0664-1.1797-1.3711l-3.3672-1.8945c-2.9844-1.7461-3.9258-5.5195-3.9102-8.8125-1.9062 2.8906-2.3047 5.375-2.3789 6 2.207 7.6641 13.93 15.164 24.449 18.637 8.0469 2.6562 14.887 2.8516 17.848 0.50781 2.0703-1.5195 3.5352-5.1992 4.0508-10.117 0.78125-7.4844-0.83203-17.75-5.418-23.031-1.6367-0.79688-3.6211-0.90234-5.543-1.0078-0.84766-0.046875-1.7227-0.09375-2.5742-0.21094 0.83594 1.5391 1.7109 3.8711 1.8125 7.0195 0.003907 0.082031 0 0.14844 0 0.22656 0.019532 0.035156 0.042969 0.046875 0.054688 0.070312 0.67969 1.2188 1.7188 2.25 2.6328 3.1602 0.81641 0.8125 1.5234 1.5156 1.9453 2.2812 0.60156 1.0898 0.64453 2.3633 0.68359 3.3867 0.019531 0.51562 0.039062 1.0469 0.12891 1.3164 0.16016 0.46094 0.59375 0.58594 0.64062 0.59766 0.52734 0.13281 0.86328 0.66406 0.74219 1.1953-0.10547 0.46094-0.50781 0.78125-0.96484 0.78125-0.066406 0-0.13281-0.007812-0.19922-0.019531-0.58203-0.12109-1.6836-0.65625-2.1094-1.9023-0.1875-0.55078-0.21094-1.2031-0.23828-1.8945-0.03125-0.85156-0.066407-1.8203-0.4375-2.4922-0.28125-0.51562-0.92578-1.1523-1.6016-1.8242-0.46875-0.46484-0.96094-0.96484-1.4414-1.5039-0.21484 1.4844-0.58984 2.582-0.94141 3.5898-0.42188 1.2148-0.78125 2.2656-0.85156 3.8633-0.089843 2.0391 0.25781 3.2852 0.59375 4.4883 0.30078 1.082 0.61328 2.2031 0.56641 3.7422-0.097657 3.2891-1.2148 4.4688-1.4375 4.6758-0.19141 0.17578-0.43359 0.26172-0.67188 0.26172-0.27344 0-0.54297-0.10938-0.73828-0.32422-0.37109-0.40625-0.34375-1.0391 0.0625-1.4141-0.003906 0 0.71875-0.82812 0.78906-3.2578 0.035156-1.2344-0.21094-2.1211-0.49609-3.1445-0.35938-1.293-0.76562-2.7539-0.66406-5.1133 0.082031-1.8906 0.53125-3.1797 0.96094-4.4297 0.03125-0.085938 0.058594-0.17578 0.089844-0.26562-0.54297 0.44141-1.1133 0.85938-1.6719 1.2734-1.2383 0.91016-2.4062 1.7734-2.9375 2.6172-1.0312 1.6289-0.68359 2.8125-0.66797 2.8633 0.16016 0.51953-0.12109 1.082-0.63672 1.2539-0.10547 0.035157-0.21484 0.050781-0.32031 0.050781-0.41016 0-0.78906-0.25-0.93359-0.66016-0.074219-0.21094-0.67969-2.1328 0.87109-4.582 0.73438-1.1602 2.0508-2.1289 3.4414-3.1562 1.3906-1.0234 2.8281-2.0859 3.5977-3.293 0.03125-0.046875 0.074219-0.074218 0.10938-0.11328 0.058594-0.65234 0.085938-1.3828 0.058594-2.2266-0.16406-5.1875-2.7539-7.8516-2.7812-7.875-0.03125-0.03125-0.046875-0.074218-0.074219-0.11328-1.3125-0.71875-2.3555-1.9414-2.8359-4.0664-0.26562-2.0039 0.44141-4.0781 2.0312-6.0781 3.0391-3.8281 8.6562-6.6172 14.766-7.3594 0.66406-1.8398 0.40234-3.3125-0.80859-4.582-4.3867-0.33594-9.3125 0.68359-14.656 3.0391-0.24609 0.097656-0.51953 0.10547-0.76562 0.011719zm-24.938 7.8281c1.9805-1.082 4.0117-1.4883 5.9648-1.2578-0.30078-3.5352-0.035157-6.5625 0.80859-9.1172-0.003906-0.03125-0.019531-0.058594-0.019531-0.09375v-5.7031c-0.11328-0.20703-1.2891-0.78125-3.5-0.78125-2.0859 0-3.25 0.51172-3.4766 0.77344 1.2305 5.5117 1.0938 11.055-0.36719 16.527 0.19531-0.125 0.39062-0.24219 0.58984-0.34766z"/>
</svg>