<svg xmlns="http://www.w3.org/2000/svg" version="1.1" width="110.0" height="135.0"><rect id="backgroundrect" width="100%" height="100%" x="0" y="0" fill="none" stroke="none"/>
 
 
<g class="currentLayer" style=""><title>Layer 1</title><path d="m13.762 26.008c-0.39844 0-0.80078-0.15234-1.1055-0.45703-0.60938-0.60938-0.60938-1.6016 0-2.2109l2.418-2.4141c0.60938-0.60938 1.5977-0.60938 2.2109 0 0.60938 0.60938 0.60938 1.6016 0 2.2109l-2.418 2.4141c-0.30469 0.30469-0.70703 0.45703-1.1055 0.45703z" id="svg_1" class="" fill="#ffffff" fill-opacity="1"/><path d="m97.98 53.691-7.043-7.043c-4.0742-4.0781-10.711-4.0742-14.797 0-4.0742 4.082-4.0742 10.719 0 14.797l13.086 13.086c2.8594 2.8594 2.8594 7.5156 0 10.379-1.3789 1.3789-3.2227 2.1367-5.1875 2.1367-1.9688 0-3.8086-0.75781-5.1875-2.1367l-8.3438-8.3438c0.53125-0.91406 0.83594-1.9492 0.83594-3.0391 0-1.6328-0.63281-3.1641-1.7812-4.3164l-3.6055-3.6055c0.33984-0.47656 0.52734-1.0469 0.52734-1.6445 0-0.76172-0.29297-1.4766-0.82812-2.0117l-2.5938-2.5938c-0.53516-0.53516-1.25-0.82812-2.0078-0.82812-0.42578 0-0.83203 0.10156-1.207 0.27734-1.3281-1.3711-1.0625-1.9453-0.13281-2.875l4.5469-4.5391c2.3125-2.3125 2.3125-6.082 0-8.3945l-31.434-31.434c-2.2383-2.2383-6.1602-2.2383-8.3984 0l-3.7578 3.7539-2.0703-2.0664c-1.3438-1.3594-3.7266-1.3516-5.0625-0.003906l-8.5547 8.5586c-0.67969 0.67187-1.0508 1.5742-1.0508 2.5352 0 0.96094 0.37109 1.8594 1.0469 2.5273l2.0742 2.0781-3.7539 3.7578c-1.1211 1.1133-1.7383 2.6055-1.7383 4.1953 0 1.5898 0.61719 3.082 1.7344 4.1992l9.125 9.125 5.5781-5.5781c0.60938-0.60938 1.5977-0.60938 2.2109 0 0.60937 0.60938 0.60937 1.5977 0 2.2109l-5.5781 5.5781 2.7656 2.7656 5.5781-5.5781c0.60938-0.60938 1.5977-0.60938 2.2109 0 0.60938 0.60938 0.60938 1.5977 0 2.2109l-5.5781 5.5781 2.7656 2.7656 5.5781-5.5781c0.60938-0.60938 1.5977-0.60938 2.2109 0 0.60938 0.60938 0.60938 1.5977 0 2.2109l-5.5781 5.582 2.7656 2.7617 5.5781-5.5781c0.60937-0.60938 1.5977-0.60938 2.2109 0 0.60938 0.60938 0.60938 1.5977 0 2.2109l-5.5781 5.5781 5.168 5.168c1.1172 1.1172 2.6094 1.7344 4.1992 1.7344 1.5898 0 3.082-0.61719 4.1992-1.7344l4.5352-4.543c0.35938-0.35938 0.88672-0.78906 1.3359-0.78906 0.38672 0 0.92188 0.32812 1.5469 0.92578-0.17578 0.375-0.27734 0.78125-0.27734 1.2031 0 0.76172 0.29297 1.4766 0.82812 2.0117l2.5938 2.5938c0.53516 0.53516 1.25 0.82812 2.0117 0.82812 0.60156 0 1.168-0.1875 1.6445-0.53125l3.6094 3.6094c1.1484 1.1484 2.6797 1.7812 4.3125 1.7812 1.0938 0 2.125-0.30469 3.043-0.83594l8.3438 8.3438c1.9688 1.9688 4.5938 3.0547 7.3984 3.0547 2.8047 0 5.4297-1.0859 7.3984-3.0547 4.0781-4.0781 4.0781-10.715 0-14.797l-13.086-13.086c-2.8594-2.8594-2.8594-7.5156 0-10.375 2.8633-2.8594 7.5195-2.8594 10.379 0l7.043 7.043c0.60938 0.60938 1.5977 0.60938 2.2109 0 0.58984-0.62109 0.58984-1.6094-0.019531-2.2227zm-81.074-22.301c-3.5898 2.0781-7.2852 4.2344-10.418 8.4805l-0.98438-0.98438c-0.52734-0.52734-0.81641-1.2344-0.81641-1.9883 0-0.75781 0.28906-1.4609 0.81641-1.9883l4.8594-4.8594c0.60938-0.60938 0.60938-1.5977 0-2.2109l-3.1836-3.1875c-0.10938-0.10938-0.125-0.24219-0.125-0.3125 0-0.070313 0.015624-0.20703 0.13281-0.32031l8.5625-8.5625c0.10938-0.10938 0.24609-0.12891 0.31641-0.12891 0.070313 0 0.20703 0.015625 0.32031 0.13281l3.1797 3.1758c0.60938 0.60938 1.5977 0.60938 2.2109 0l4.8594-4.8594c1.0547-1.0547 2.9219-1.0586 3.9766 0l1.5312 1.5312c-4.6406 9.9258-10.027 13.062-15.238 16.082zm38.785 40.125-2.1953-2.1953 7.5547-7.5547 2.1953 2.1953z" id="svg_2" class="" fill="#ffffff" fill-opacity="1"/></g></svg>