<svg xmlns="http://www.w3.org/2000/svg" version="1.1" width="110.0" height="135.0" style=""><rect id="backgroundrect" width="100%" height="100%" x="0" y="0" fill="none" stroke="none"/>
 
<g class="currentLayer" style=""><title>Layer 1</title><path d="m79.578 19.578c-3.5781-2.625-7.4336-3.4961-11.461-2.5938-6.6523 1.2773-9.5859 7.5586-9.0547 13.109 0.375 3.9414 2.7617 8.5078 8.207 8.8398 1.25-1.9414 3.0273-3.0117 5.0625-3.0117 0.55078 0 1 0.44531 1 1s-0.44922 1-1 1c-1.4102 0-2.5742 0.75391-3.4688 2.2266-0.042969 0.22266-0.14844 0.41797-0.3125 0.5625-0.76953 1.5352-1.2109 3.6055-1.2109 5.7539 0 2.1211 0.42969 4.2539 1.2656 5.8594 0.10938 0.10938 0.17969 0.25 0.23047 0.39844 0.83203 1.3828 1.9961 2.2852 3.4961 2.2852 0.55078 0 1 0.44531 1 1 0 0.55469-0.44922 1-1 1-2.2227 0-3.8789-1.1797-5.0234-2.9414-4.7188 0.39062-5.8633 5.3359-6.1055 6.9023-0.8125 5.3047 1.5781 11.809 6.9922 13.508 5.5938 1.543 10.477 0.64844 14.473-2.6797 6.2578-5.2031 9.6562-16.043 8.6641-27.613-0.89062-10.371-5.5039-20.027-11.754-24.605zm4.25 13.625c-0.097656 0.03125-0.19922 0.046875-0.29688 0.046875-0.42578 0-0.82031-0.27344-0.95312-0.70312-1.5859-5.1172-4.9766-8.168-10.355-9.3359-0.53906-0.11719-0.88281-0.64844-0.76562-1.1875 0.11719-0.53906 0.64844-0.88281 1.1875-0.76563 6.0625 1.3164 10.047 4.9141 11.844 10.695 0.16016 0.52734-0.13281 1.0859-0.66016 1.25zm-27.238 49.512c-0.11328 0.14062-0.53906 0.41406-1.2344 0.5625-0.66016 0.14062-1.1445 0.074218-1.332-0.007813-1.875-22.254 1.7383-33.648 11.352-35.754 0.03125 0.5 0.085938 1 0.15625 1.4961-8.0898 4.6562-11.027 15.652-8.9414 33.703zm5.1523-36.059-6.5664-0.96094c-0.058593-0.015624-0.18359-0.046874-0.26562-0.32812-0.17188-0.58594 0.058594-1.5156 0.48047-1.957 0.20703-0.21484 0.33203-0.18359 0.41797-0.16406l9.5742 2.0586c-0.003906 0.0625-0.011718 0.12109-0.015624 0.17969-1.3203 0.25391-2.5312 0.64453-3.625 1.1719zm-27.109-1.0781c-0.007812-0.12109-0.015624-0.24609-0.027343-0.36719l9.168-1.9727c0.33594-0.074219 0.70703 0.5 0.85156 1.0938s0.082031 1.2812-0.15625 1.3438l-6.6523 0.98047c-0.97266-0.46484-2.0312-0.82422-3.1836-1.0781zm31.348 5.5156c0.10547 0.36719 0.23047 0.72656 0.36719 1.0742-1.2344 0.22266-2.3516 0.71875-3.3203 1.4492 0.86719-0.99609 1.8594-1.8242 2.9531-2.5234zm-33.297 2.9688c-1.25 1.8945-3.0039 2.9414-5.0156 2.9414-0.55078 0-1-0.44531-1-1 0-0.55469 0.44922-1 1-1 1.418 0 2.5898-0.76562 3.4883-2.2617 0.046875-0.16016 0.12109-0.30859 0.23828-0.42578 0.37109-0.71484 0.66797-1.5469 0.87891-2.457-0.03125-0.21094-0.015626-0.42969 0.09375-0.62891 0.011718-0.019531 0.03125-0.03125 0.042968-0.050781 0.15625-0.86719 0.24219-1.7852 0.24219-2.7188 0-2.0781-0.41406-4.1641-1.2148-5.7578-0.15625-0.14062-0.25391-0.32422-0.30078-0.53516-0.82812-1.3594-1.9883-2.25-3.4727-2.25-0.55078 0-1-0.44531-1-1 0-0.55469 0.44922-1 1-1 2.2539 0 3.9219 1.2109 5.0703 3.0117 5.4414-0.33594 7.8281-4.8984 8.2031-8.8398 0.52734-5.5469-2.4023-11.828-9.0273-13.102-4.0547-0.90625-7.9141-0.035156-11.492 2.5859-6.2461 4.582-10.859 14.238-11.75 24.605-0.99609 11.57 2.4023 22.41 8.6602 27.613 3.9961 3.3242 8.8789 4.2188 14.508 2.6719 5.3789-1.6914 7.7734-8.1953 6.9609-13.5-0.24219-1.5625-1.3867-6.5156-6.1133-6.9023zm-15.262-21.516c-0.13281 0.42969-0.52734 0.70312-0.95312 0.70312-0.097656 0-0.19922-0.015625-0.29688-0.046875-0.52734-0.16406-0.82031-0.72656-0.66016-1.25 1.7969-5.7812 5.7812-9.3828 11.844-10.695 0.53906-0.11719 1.0703 0.22656 1.1875 0.76563 0.11719 0.53906-0.22656 1.0703-0.76562 1.1875-5.3789 1.168-8.7656 4.2188-10.355 9.3359zm16.234 19.621c0.10547-0.27344 0.20312-0.55469 0.29688-0.83984 0.67578 0.46094 1.2969 0.99219 1.8828 1.5742-0.67578-0.34766-1.4062-0.59375-2.1797-0.73438zm11.879 31.105c-0.18359 0.078124-0.67188 0.14453-1.332 0.007812-0.6875-0.14453-1.1133-0.41406-1.2344-0.55469v-0.007812c2.0547-17.707-0.74609-28.648-8.5391-33.445 0.085937-0.53516 0.14844-1.0859 0.18359-1.6484 9.293 2.3477 12.77 13.73 10.922 35.648z" id="svg_1" class="" fill="#ffffff" fill-opacity="1"/></g></svg>