<svg xmlns="http://www.w3.org/2000/svg" version="1.1" width="110.0" height="135.0"><rect id="backgroundrect" width="100%" height="100%" x="0" y="0" fill="none" stroke="none"/>
 
<g class="currentLayer" style=""><title>Layer 1</title><path d="m91.133 67.582c1.0938 10.133-0.26172 18.199-3.5156 21.039-1.2461 1.0312-4.5312 0.070312-8.793-2.5703-2.2188-1.375-4.75-2.2266-7.3281-2.4531-0.20312-0.019531-0.41016-0.039062-0.60938-0.058594-7.0117-0.76562-12.523-6.8203-12.824-14.09-0.24609-5.9219 0.03125-11.961 0.81641-17.984 2.8828 2.5508 5.3242 5.2852 7.3164 8.2227-0.23828 3.7188-0.88672 6.3242-1.9336 7.7344-0.32812 0.44531-0.23828 1.0703 0.20703 1.3984 0.17969 0.13281 0.39062 0.19531 0.59375 0.19531 0.30469 0 0.60938-0.14062 0.80469-0.40234 1-1.3477 1.6797-3.3672 2.0625-6.125 1.9102 3.3984 3.2969 7.0469 4.1484 10.969 0.10156 0.46875 0.51562 0.78906 0.97656 0.78906 0.070312 0 0.14062-0.007813 0.21094-0.023438 0.53906-0.11719 0.88281-0.64844 0.76562-1.1875-0.94922-4.375-2.5273-8.4219-4.7227-12.168 4.2617-0.35156 7.8828 1.8047 11.031 6.5664 0.19141 0.28906 0.51172 0.44922 0.83594 0.44922 0.1875 0 0.38281-0.054687 0.55078-0.16406 0.46094-0.30469 0.58594-0.92578 0.28125-1.3867-1.2422-1.8789-2.5781-3.3984-4.0039-4.5742 1.4258-0.29297 2.7812-0.90625 4.0898-1.8633 0.44531-0.32812 0.53906-0.95312 0.21484-1.3984-0.32812-0.44531-0.95312-0.54297-1.3984-0.21484-1.7891 1.3125-3.6719 1.8438-5.7695 1.6289-0.011719 0-0.023437 0.003906-0.039063 0.003906-2.1562-1-4.4766-1.3086-6.957-0.91797-2.4141-3.6523-5.457-7.0117-9.1641-10.09-0.10938-0.17188-0.27344-0.30078-0.46875-0.37891-2.3867-1.9414-5.0234-3.7773-7.9453-5.5039-0.17188-0.10156-0.36328-0.12891-0.55078-0.11719-0.19531-0.011719-0.39453 0.011719-0.57422 0.11719-2.9219 1.7266-5.5586 3.5664-7.9453 5.5078-0.19531 0.078125-0.35547 0.20312-0.46484 0.375-3.707 3.082-6.7539 6.4375-9.1641 10.09-2.4805-0.38672-4.8047-0.078125-6.957 0.91797-0.011718 0-0.023437-0.003906-0.039062-0.003906-2.0938 0.21484-3.9805-0.32031-5.7695-1.6289-0.44531-0.32812-1.0703-0.23047-1.3984 0.21484-0.32812 0.44531-0.23047 1.0703 0.21484 1.3984 1.3047 0.95703 2.6602 1.5703 4.0898 1.8633-1.4258 1.1758-2.7656 2.6953-4.0078 4.5742-0.30469 0.46094-0.17969 1.082 0.28125 1.3867 0.17188 0.11328 0.35938 0.16406 0.55078 0.16406 0.32422 0 0.64062-0.15625 0.83594-0.44922 3.1523-4.7617 6.7695-6.918 11.031-6.5664-2.1953 3.75-3.7734 7.793-4.7227 12.168-0.11719 0.53906 0.22656 1.0703 0.76563 1.1875 0.070312 0.015625 0.14453 0.023438 0.21484 0.023438 0.46094 0 0.875-0.32031 0.97656-0.78906 0.85156-3.9258 2.2383-7.5703 4.1484-10.969 0.38281 2.7578 1.0625 4.7773 2.0625 6.125 0.19531 0.26562 0.5 0.40234 0.80469 0.40234 0.20703 0 0.41406-0.0625 0.59375-0.19531 0.44531-0.32812 0.53516-0.95703 0.20703-1.3984-1.0469-1.4102-1.6953-4.0156-1.9336-7.7344 1.9961-2.9375 4.4336-5.6758 7.3164-8.2227 0.78125 6.0234 1.0586 12.062 0.81641 17.984-0.30078 7.2695-5.8125 13.324-12.82 14.086-0.20312 0.023438-0.40625 0.042969-0.61328 0.058594-2.5781 0.23047-5.1094 1.0781-7.3281 2.4531-4.2578 2.6406-7.5469 3.6016-8.7734 2.5859-3.2734-2.8555-4.6289-10.926-3.5352-21.059 1.7695-16.398 9.875-36.422 23.996-44.18 1.6016-0.87891 3.5039-0.84375 5.0938 0.097657 1.6328 0.96484 2.6055 2.6641 2.6055 4.5508v13.953c-2.8359 3.0547-5.3164 4.6406-7.5234 4.8047-0.49219 0.039063-0.97266-0.13672-1.3633-0.44922-0.015625-0.019531-0.039062-0.03125-0.058594-0.046874-0.30469-0.26172-0.54688-0.60547-0.67969-1.0078l-1.0352-3.2031c-0.37109-1.1523-1.2227-2.082-2.3359-2.5547l-1.4961-0.63672c-0.50781-0.21875-1.0938 0.019531-1.3125 0.53125-0.21484 0.50781 0.019531 1.0938 0.53125 1.3125l1.4922 0.63281c0.57812 0.24609 1.0234 0.73047 1.2188 1.332l1.0352 3.2031c0.019531 0.058594 0.046875 0.10938 0.070313 0.16406-3.6836 0.23828-6.4805 1.4414-8.3438 3.6172-0.35938 0.41797-0.30859 1.0508 0.10937 1.4102 0.1875 0.16016 0.41797 0.24219 0.64844 0.24219 0.28125 0 0.5625-0.11719 0.76172-0.35156 1.6992-1.9883 4.4844-2.9805 8.2891-2.957 0.74609 0.54297 1.6602 0.83203 2.6172 0.76172 3.5-0.26172 7.1641-3 11.535-8.625 1.8359-2.3594 2.8438-5.2812 2.8438-8.2266l-0.011719-19.898c0-0.66797 1.2617-1.0781 2.4336-1.0781 1.168 0 2.4297 0.41406 2.4297 1.0781v19.898c0 2.9453 1.0078 5.8672 2.8438 8.2266 4.3711 5.625 8.0352 8.3633 11.535 8.625 0.097656 0.007813 0.19531 0.011719 0.29297 0.011719 0.85547 0 1.6641-0.28125 2.3359-0.77344 3.7852-0.023437 6.5781 0.97266 8.2812 2.957 0.19531 0.23047 0.47656 0.35156 0.75781 0.35156 0.23047 0 0.46094-0.078125 0.64844-0.24219 0.41797-0.35938 0.46875-0.99219 0.10938-1.4102-1.8594-2.1758-4.6562-3.3828-8.3438-3.6172 0.019531-0.054687 0.050781-0.10938 0.066406-0.16406l1.0352-3.2031c0.19531-0.60156 0.63672-1.0859 1.2148-1.332l1.4961-0.63672c0.50781-0.21484 0.74609-0.80469 0.53125-1.3125-0.21484-0.50781-0.80469-0.74219-1.3125-0.53125l-1.4961 0.63672c-1.1133 0.47266-1.9648 1.4062-2.3359 2.5547l-1.0352 3.2031c-0.13672 0.41797-0.38672 0.76562-0.70313 1.0273-0.007812 0.007813-0.019531 0.015626-0.027343 0.023438-0.39062 0.31641-0.87891 0.49219-1.3711 0.45703-2.207-0.16406-4.6875-1.75-7.5234-4.8047v-13.953c0-1.8867 0.97266-3.5859 2.6055-4.5508 1.5898-0.94141 3.4961-0.97656 5.0938-0.097657 14.129 7.7695 22.234 27.789 24.004 44.188z" id="svg_1" class="selected" fill="#ffffff" fill-opacity="1"/></g></svg>