<svg xmlns="http://www.w3.org/2000/svg" version="1.1" width="110.0" height="135.0" style=""><rect id="backgroundrect" width="100%" height="100%" x="0" y="0" fill="none" stroke="none"/>
 
 
<g class="currentLayer" style=""><title>Layer 1</title><path d="m50 9.375c-10.93 0-19.793 8.8594-19.793 19.793 0 10.93 8.8633 19.789 19.793 19.789s19.793-8.8594 19.793-19.789c0-10.934-8.8633-19.793-19.793-19.793z" fill-rule="evenodd" id="svg_1" class="selected" fill="#ffffff" fill-opacity="1"/><path d="m50 42.707c-17.836 0-32.293 14.457-32.293 32.293v3.5781c0 2.832 1.9648 5.2852 4.7266 5.9062l7.8359 1.7695c12.992 2.9297 26.469 2.9297 39.461 0l7.8359-1.7695c2.7617-0.62109 4.7266-3.0742 4.7266-5.9062v-3.5781c0-17.836-14.457-32.293-32.293-32.293zm1.043 23.961c0-1.7266 1.3984-3.125 3.125-3.125h3.125v-3.125c0-1.7266 1.3984-3.125 3.125-3.125 1.7227 0 3.125 1.3984 3.125 3.125v3.125h3.125c1.7227 0 3.125 1.3984 3.125 3.125 0 1.7227-1.4023 3.125-3.125 3.125h-3.125v3.125c0 1.7227-1.4023 3.125-3.125 3.125-1.7266 0-3.125-1.4023-3.125-3.125v-3.125h-3.125c-1.7266 0-3.125-1.4023-3.125-3.125z" fill-rule="evenodd" id="svg_2" class="selected" fill="#ffffff" fill-opacity="1"/></g></svg>