<svg xmlns="http://www.w3.org/2000/svg" version="1.1" width="110.0" height="135.0" style=""><rect id="backgroundrect" width="100%" height="100%" x="0" y="0" fill="none" stroke="none"/>
 
<g class="currentLayer" style=""><title>Layer 1</title><path d="m13.039 90.27c-0.007812 0.12891 0.21094 0.37891 0.71094 0.61719 0.65234 0.3125 1.6094 0.53125 2.6172 0.59375 1.0078 0.0625 1.9844-0.03125 2.6719-0.25781 0.48438-0.16016 0.73438-0.35938 0.77734-0.49219-0.61719-9.832 0.48438-15.242 3.4609-17.016 1.8672-1.1133 4.3438-0.72266 7.3594 1.168 0.13281 0.082032 0.24219 0.19531 0.32422 0.33203 4.5898 7.5938 13.055 11.219 23.234 9.9414 13.812-1.7344 26.207-12.035 30.148-25.051 6.2578-18.02 0.86328-32.41-7.6914-37.332-7.0508-4.0586-15.531-1.5195-22.68 6.793-0.26953 0.3125-0.69922 0.42969-1.0898 0.28906-7.0273-2.4766-8.2656-11.922-8.5312-20.867-0.29297-0.22656-1.457-0.55859-3.3164-0.46875-1.8828 0.089844-3.0117 0.53516-3.2656 0.78516-0.91797 13.695 3.0234 22.758 12.781 29.375 0.1875 0.125 0.32422 0.3125 0.39062 0.52344 0.50781 1.6016 0.46875 3.0078 0.43359 4.25-0.023438 0.89453-0.050781 1.7383 0.14062 2.5273 1.4961 6.1836 0.99219 10.977-1.5 14.242-2.5 3.2852-7.0312 5.0508-13.469 5.2578-2.1484 0.066406-2.6094 0.11328-4.4062 1.1445-1.1875 0.67969-2.6367 0.78516-3.8867 0.28516-2.1172-0.85156-4.0156-1.2773-5.6797-1.2773-1.6445 0-3.0625 0.41406-4.2422 1.25-4.0195 2.8398-5.7969 10.672-5.2891 23.285 0 0.03125 0 0.066406-0.003907 0.10156zm55.242-63.809c0.125-0.53906 0.65625-0.87109 1.2031-0.74609 6.4531 1.5117 10.523 6.0078 12.445 13.75 0.13281 0.53516-0.19531 1.0781-0.73047 1.2109-0.082031 0.019531-0.16406 0.03125-0.24219 0.03125-0.44922 0-0.85547-0.30469-0.96875-0.75781-1.7461-7.0391-5.2305-10.941-10.961-12.281-0.53906-0.12891-0.875-0.66797-0.74609-1.207z" id="svg_1" class="selected" fill="#ffffff" fill-opacity="1"/></g></svg>